# xmcd
#
# Track frame offsets: 
#        150
#        17622
#        39175
#        55807
#        77820
#        91687
#        106750
#        125702
#        140587
#        159482
#
# Disc length: 2377 seconds
#
# Revision: 0
# Processed by: cddbd v1.5.2PL0 Copyright (c) Steve Scherf et al.
# Submitted via: ExactAudioCopyFreeDBPlugin 1.0
#
DISCID=7209470a
DTITLE=Diep Thanh Thanh - Con Gai Nha Lanh
DYEAR=1900
DGENRE=
TTITLE0=Mot chieu mua
TTITLE1=Bai tho dan ao
TTITLE2=Xa nhau
TTITLE3=Hay xem nhu 1 giac mo
TTITLE4=Tinh ca 3
TTITLE5=Bai tango gia tu
TTITLE6=Rung thu
TTITLE7=Con gai nha lanh
TTITLE8=Chieu mua thu bay
TTITLE9=Nho nguoi dung
EXTD=
EXTT0=
EXTT1=
EXTT2=
EXTT3=
EXTT4=
EXTT5=
EXTT6=
EXTT7=
EXTT8=
EXTT9=
PLAYORDER=
